<svg width="148" height="123" fill="none" xmlns="http://www.w3.org/2000/svg"><path d="M148 58.788c-.796 2.093-2.386 2.606-4.499 2.533-3.565-.124-7.137-.012-10.706-.051-1.907-.022-3.035-1.103-3.064-2.791-.028-1.585.982-2.836 2.574-2.86 4.306-.066 8.613-.036 12.92-.011 1.598.008 2.131 1.308 2.775 2.441v.74ZM68.01 61.498c0-16.915.002-33.83-.005-50.745 0-.736-.027-1.48-.134-2.207-.207-1.414-1.068-2.288-2.453-2.581-.636-.135-1.305-.156-1.959-.156C45.77 5.8 28.081 5.8 10.391 5.808c-.613 0-1.239.013-1.839.127-1.501.285-2.368 1.21-2.59 2.733a12.762 12.762 0 0 0-.116 1.839 301203.3 301203.3 0 0 0 0 101.983c0 .654.035 1.315.133 1.961.215 1.412 1.07 2.291 2.455 2.579.676.141 1.387.157 2.082.158 17.277.007 34.556.006 51.833.005.7 0 1.4.022 2.098-.011 2.16-.101 3.318-1.197 3.522-3.34.054-.57.04-1.148.04-1.723.002-16.873.002-33.748.002-50.621Zm5.73-.002c-.001 17.157.016 34.313-.032 51.47-.004 1.487-.165 3.088-.73 4.439-1.527 3.653-4.503 5.541-8.422 5.554-18.424.059-36.849.046-55.274.014-5.176-.009-9.265-4.105-9.268-9.263-.019-34.806-.019-69.612 0-104.419C.017 4.133 4.103.033 9.277.024c18.425-.033 36.85-.03 55.275-.002 5.098.008 8.963 3.82 9.173 8.895.025.615.014 1.231.014 1.847v50.732M122.969 58.483c.088 16.398-11.593 30.266-27.882 33.153-1.769.314-3.595.365-5.398.414-2.107.057-3.106-.895-3.11-2.768-.005-1.852 1.017-2.829 3.043-2.899 8.31-.288 15.428-3.307 20.823-9.668 7.026-8.286 8.86-17.793 5.092-27.968-3.715-10.03-11.19-15.947-21.754-17.88-1.407-.257-2.855-.322-4.288-.412-1.976-.125-2.933-1.044-2.905-2.883.029-1.795 1.213-3.002 3.112-2.871 2.33.16 4.71.277 6.956.85 14.3 3.649 22.906 12.808 25.997 27.175.155.718.271 1.456.301 2.19.05 1.187.013 2.378.013 3.567ZM140.285 30.63c.048 1.138-.467 1.994-1.418 2.548-3.579 2.084-7.157 4.17-10.771 6.192-1.419.793-3.061.268-3.842-1.067-.783-1.337-.439-3.057.947-3.88 3.595-2.136 7.21-4.244 10.873-6.26 1.963-1.082 4.176.287 4.211 2.467ZM108.072 20.776c.074-.225.166-.808.439-1.287a787.897 787.897 0 0 1 6.023-10.424c.774-1.315 1.805-1.737 3.226-1.448 1.22.248 2.001 1.041 2.145 2.234.081.68-.067 1.502-.4 2.1-1.951 3.507-3.97 6.976-6.004 10.435-.778 1.325-2.058 1.83-3.333 1.441-1.299-.395-2.071-1.395-2.096-3.052ZM140.55 85.907c-.241 2.336-2.367 3.859-4.262 2.842-3.791-2.034-7.504-4.216-11.195-6.427-1.327-.794-1.598-2.514-.83-3.805.766-1.287 2.382-1.852 3.74-1.096 3.689 2.052 7.356 4.148 10.957 6.35.703.429 1.069 1.41 1.59 2.136ZM116.743 109.291c-.792.006-1.607-.484-2.142-1.402-2.062-3.54-4.134-7.074-6.147-10.641-.839-1.486-.35-3.145 1.026-3.955 1.395-.821 3.058-.446 3.943 1.043 2.114 3.556 4.213 7.124 6.203 10.75 1.107 2.017-.34 4.245-2.883 4.205ZM92.197 9.136c0 2.174.05 4.35-.02 6.524-.038 1.243-.835 2.035-2.003 2.37-1.247.36-2.514-.073-3.14-1.125a3.61 3.61 0 0 1-.48-1.734c-.042-4.022-.045-8.045-.014-12.067.015-1.826 1.226-3.083 2.837-3.083 1.605 0 2.813 1.257 2.856 3.08.046 2.011.01 4.023.01 6.034h-.046ZM86.529 107.689c0-1.969-.025-3.939.008-5.908.031-1.928 1.068-3.032 2.787-3.054 1.779-.022 2.891 1.09 2.91 3.067.038 3.939.035 7.879.002 11.818-.016 1.931-1.196 3.183-2.864 3.179-1.678-.004-2.81-1.25-2.837-3.193-.029-1.969-.007-3.939-.006-5.909Z" fill="#fff"/><path d="M36.896 18.126c-2.96 0-5.92.014-8.879-.005-2.02-.013-3.156-1.032-3.177-2.788-.022-1.812 1.14-2.96 3.175-2.97 5.92-.031 11.839-.028 17.758-.003 2.064.009 3.233 1.11 3.239 2.91.006 1.818-1.132 2.84-3.237 2.852-2.96.017-5.92.004-8.879.004ZM42.852 104.665c-.012 3.384-2.528 5.886-5.921 5.888-3.442.002-5.97-2.556-5.93-6.002.037-3.36 2.598-5.858 5.982-5.835 3.365.024 5.88 2.573 5.869 5.949Z" fill="#fff"/></svg>